<svg width="21" height="20" viewBox="0 0 21 20" fill="none" xmlns="http://www.w3.org/2000/svg">
<path d="M15.1668 1.75028L6.89216 3.8252C5.68387 4.12519 4.45892 5.35014 4.15893 6.55843L2.08402 14.8331C1.45904 17.333 2.99231 18.8746 5.50055 18.2496L13.7752 16.1831C14.9752 15.8831 16.2085 14.6498 16.5085 13.4498L18.5834 5.16681C19.2083 2.66691 17.6667 1.1253 15.1668 1.75028Z" stroke="white" stroke-width="1.24995" stroke-linecap="round" stroke-linejoin="round"/>
<path d="M10.3337 12.9165C11.9445 12.9165 13.2503 11.6108 13.2503 9.99999C13.2503 8.38922 11.9445 7.08344 10.3337 7.08344C8.72295 7.08344 7.41716 8.38922 7.41716 9.99999C7.41716 11.6108 8.72295 12.9165 10.3337 12.9165Z" stroke="white" stroke-width="1.24995" stroke-linecap="round" stroke-linejoin="round"/>
</svg>
