<svg width="20" height="20" viewBox="0 0 20 20" fill="none" xmlns="http://www.w3.org/2000/svg">
<path d="M8.3917 2.34997L2.61671 6.97501C1.96671 7.49168 1.55003 8.58337 1.69169 9.40004L2.80002 16.0333C3.00002 17.2167 4.13336 18.1751 5.33336 18.1751H14.6667C15.8584 18.1751 17 17.2083 17.2 16.0333L18.3084 9.40004C18.4417 8.58337 18.025 7.49168 17.3833 6.97501L11.6084 2.35831C10.7167 1.64165 9.27503 1.64164 8.3917 2.34997Z" stroke="white" stroke-width="1.25" stroke-linecap="round" stroke-linejoin="round"/>
<path d="M8.23322 11.9834C9.29155 10.975 10.7082 10.975 11.7665 11.9834" stroke="white" stroke-width="1.25" stroke-linecap="round" stroke-linejoin="round"/>
<path d="M13.5333 10.2167C13.0833 9.77503 12.5834 9.43337 12.0667 9.18337C10.7417 8.55004 9.25835 8.55004 7.92502 9.18337C7.40835 9.43337 6.91668 9.77503 6.45834 10.2167" stroke="white" stroke-width="1.25" stroke-linecap="round" stroke-linejoin="round"/>
<path d="M9.99626 14.1667H10.0038" stroke="white" stroke-width="1.66667" stroke-linecap="round" stroke-linejoin="round"/>
</svg>
