<svg width="20" height="20" viewBox="0 0 20 20" fill="none" xmlns="http://www.w3.org/2000/svg">
<path d="M17.5669 7.15014V12.8499C17.5669 13.7832 17.0669 14.6499 16.2586 15.1248L11.3088 17.9831C10.5005 18.4497 9.50055 18.4497 8.68392 17.9831L3.73411 15.1248C2.92581 14.6582 2.42583 13.7915 2.42583 12.8499V7.15014C2.42583 6.21684 2.92581 5.35018 3.73411 4.87519L8.68392 2.01698C9.49222 1.55033 10.4922 1.55033 11.3088 2.01698L16.2586 4.87519C17.0669 5.35018 17.5669 6.20851 17.5669 7.15014Z" stroke="white" stroke-width="1.24995" stroke-linecap="round" stroke-linejoin="round"/>
<path d="M10.0004 9.16661C11.0727 9.16661 11.942 8.29731 11.942 7.225C11.942 6.15269 11.0727 5.28345 10.0004 5.28345C8.9281 5.28345 8.05882 6.15269 8.05882 7.225C8.05882 8.29731 8.9281 9.16661 10.0004 9.16661Z" stroke="white" stroke-width="1.24995" stroke-linecap="round" stroke-linejoin="round"/>
<path d="M13.3336 13.8831C13.3336 12.3832 11.842 11.1666 10.0004 11.1666C8.15883 11.1666 6.66722 12.3832 6.66722 13.8831" stroke="white" stroke-width="1.24995" stroke-linecap="round" stroke-linejoin="round"/>
</svg>
