<svg width="20" height="20" viewBox="0 0 20 20" fill="none" xmlns="http://www.w3.org/2000/svg">
<path d="M16.55 6.74166C16.55 7.09166 16.525 7.43333 16.4833 7.75833C16.1 7.59167 15.6833 7.5 15.2417 7.5C14.225 7.5 13.325 7.99166 12.7667 8.74166C12.2 7.99166 11.3 7.5 10.2833 7.5C8.575 7.5 7.19168 8.89166 7.19168 10.6167C7.19168 12.85 8.37501 14.5583 9.69168 15.7167C9.65001 15.7417 9.60835 15.75 9.56668 15.7667C9.31668 15.8583 8.90001 15.8583 8.65001 15.7667C6.49168 15.025 1.66667 11.9583 1.66667 6.74166C1.66667 4.44166 3.51666 2.58334 5.8 2.58334C7.15833 2.58334 8.35833 3.23333 9.10833 4.24166C9.86667 3.23333 11.0667 2.58334 12.4167 2.58334C14.7 2.58334 16.55 4.44166 16.55 6.74166Z" fill="white"/>
<path d="M18.3332 10.6167C18.3332 14.5167 14.7249 16.8167 13.1082 17.3667C12.9166 17.4333 12.6082 17.4333 12.4166 17.3667C11.7249 17.1333 10.6666 16.575 9.69157 15.7167C8.37491 14.5583 7.19157 12.85 7.19157 10.6167C7.19157 8.89166 8.5749 7.5 10.2832 7.5C11.2999 7.5 12.1999 7.99166 12.7666 8.74166C13.3249 7.99166 14.2249 7.5 15.2416 7.5C15.6832 7.5 16.0999 7.59166 16.4832 7.75833C17.5749 8.24166 18.3332 9.33333 18.3332 10.6167Z" fill="white" stroke="#ED3D7B" stroke-width="0.833333" stroke-linecap="round" stroke-linejoin="round"/>
</svg>
