<svg width="21" height="20" viewBox="0 0 21 20" fill="none" xmlns="http://www.w3.org/2000/svg">
<path d="M17.2168 6.74172C17.2168 7.09171 17.1918 7.43336 17.1501 7.75835C16.7668 7.59169 16.3502 7.50003 15.9085 7.50003C14.8919 7.50003 13.9919 7.99167 13.4336 8.74164C12.867 7.99167 11.967 7.50003 10.9504 7.50003C9.24209 7.50003 7.85882 8.89163 7.85882 10.6166C7.85882 12.8498 9.04211 14.5581 10.3587 15.7164C10.3171 15.7414 10.2754 15.7497 10.2337 15.7664C9.98374 15.858 9.56709 15.858 9.3171 15.7664C7.15885 15.0247 2.33403 11.9582 2.33403 6.74172C2.33403 4.44181 4.18395 2.58356 6.4672 2.58356C7.82548 2.58356 9.02543 3.23352 9.7754 4.24182C10.5337 3.23352 11.7337 2.58356 13.0836 2.58356C15.3669 2.58356 17.2168 4.44181 17.2168 6.74172Z" stroke="white" stroke-width="1.24995" stroke-linecap="round" stroke-linejoin="round"/>
<path d="M18.9999 10.6165C18.9999 14.5164 15.3917 16.8163 13.7751 17.3663C13.5835 17.4329 13.2751 17.4329 13.0835 17.3663C12.3918 17.133 11.3336 16.5746 10.3586 15.7163C9.04198 14.558 7.85869 12.8498 7.85869 10.6165C7.85869 8.8916 9.24196 7.5 10.9502 7.5C11.9669 7.5 12.8668 7.99164 13.4335 8.74161C13.9918 7.99164 14.8918 7.5 15.9084 7.5C16.35 7.5 16.7667 7.59166 17.15 7.75832C18.2416 8.24164 18.9999 9.33325 18.9999 10.6165Z" stroke="white" stroke-width="1.24995" stroke-linecap="round" stroke-linejoin="round"/>
</svg>
